<svg width="211" height="140" viewBox="0 0 211 140" fill="none" xmlns="http://www.w3.org/2000/svg">
<path fill-rule="evenodd" clip-rule="evenodd" d="M97.7749 52.0928C102.568 49.6972 108.21 49.7032 112.997 52.109C116.507 53.8731 119.298 56.7995 120.893 60.3899L122.568 64.1591L125.36 62.9184L123.685 59.1492C121.803 54.913 118.511 51.4603 114.369 49.3789C108.72 46.5403 102.064 46.5332 96.4088 49.3597L96.1431 49.4925C92.1307 51.4981 88.8601 54.8057 86.867 58.8136C83.992 64.5948 83.9441 71.4734 86.8206 77.2705C88.8634 81.3874 92.228 84.7085 96.3672 86.7025C102.063 89.4465 108.723 89.4387 114.412 86.683C118.505 84.7011 121.842 81.4263 123.897 77.3682L125.327 74.5423L125.023 74.3882L125.034 74.3645L124.002 73.8719L122.601 73.1624L122.585 73.1946L121.894 72.8646C118.94 71.4538 116.563 69.0683 115.162 66.1099L114.028 63.7135C113.112 61.7805 111.577 60.2089 109.666 59.2485C106.957 57.8869 103.738 57.9075 101.039 59.2564C99.152 60.1996 97.5889 61.7654 96.6493 63.6548C95.2974 66.3733 95.273 69.6087 96.6291 72.3416L96.6981 72.4807C97.615 74.3286 99.1219 75.8181 100.98 76.7134C103.769 78.0566 107.043 77.9205 109.71 76.3504L110.132 76.1017L108.582 73.4686L108.16 73.7173C106.372 74.77 104.176 74.8614 102.307 73.9607C101.06 73.3604 100.05 72.3617 99.4351 71.1226L99.3661 70.9835C98.4416 69.1203 98.4524 66.891 99.3852 65.0153C100.029 63.7203 101.111 62.6362 102.405 61.9894C104.256 61.0645 106.46 61.0568 108.294 61.9787C109.596 62.633 110.642 63.7039 111.266 65.021L112.401 67.4173C114.102 71.0107 116.989 73.9082 120.577 75.6218L121.204 75.9215L121.17 75.9883C119.419 79.4479 116.572 82.2422 113.081 83.9331C108.23 86.2824 102.549 86.2889 97.6933 83.9498C94.1652 82.2502 91.2977 79.4191 89.5577 75.9124C87.1128 70.9851 87.147 65.1126 89.6029 60.1741C91.3048 56.7518 94.0989 53.9302 97.5092 52.2256L97.7749 52.0928Z" fill="#1D1F23"/>
</svg>
