<?xml version="1.0" encoding="UTF-8"?>
<svg
  contentScriptType="text/ecmascript"
  contentStyleType="text/css"
  version="1.0"
  viewBox="0 0 375 375"
  xmlns="http://www.w3.org/2000/svg"
  zoomAndPan="magnify"
>
  <defs>
    <clipPath id="c">
      <path d="m8 5h366v365h-366z" />
    </clipPath>
    <clipPath id="b">
      <path d="m72.25-51.309 354.06 123.56-123.56 354.06-354.06-123.56z" />
    </clipPath>
    <clipPath id="a">
      <path d="m-51.309 302.75 354.06 123.56 123.56-354.06-354.06-123.56z" />
    </clipPath>
  </defs>
  <g clip-path="url(#c)">
    <g clip-path="url(#b)">
      <g clip-path="url(#a)">
        <path
          d="m80.457 297.52c32.75 33.672 79.465 49.918 126.04 43.836 34.152-4.4609 65.699-20.625 89.273-45.73l24.75-26.363 19.527 18.336-24.75 26.359c-27.812 29.625-65.035 48.695-105.33 53.957-54.949 7.1797-110.07-11.988-148.71-51.719l-1.8164-1.8672c-27.418-28.188-44.934-65.012-49.855-103.94-7.0977-56.156 12.375-113.23 52.93-152.9 28.797-28.176 66.242-45.945 106.26-50.492 55.07-6.2617 110.17 13.039 149.3 52.281 28.145 28.227 46.312 64.973 51.594 104.49l3.6758 27.523-2.9648 0.39453 0.023438 0.22656-9.957 1.1016-13.652 1.8242-0.042969-0.31641-6.668 0.73828c-28.523 3.1445-55.09 16.023-75.23 36.465l-16.309 16.559c-13.16 13.355-30.406 21.93-48.996 24.355-26.359 3.4453-52.945-6.0234-71.383-24.984-12.895-13.258-21.312-30.73-23.629-49.082-3.3398-26.406 5.8047-53.258 24.922-71.961l0.97266-0.95313c12.93-12.645 29.703-20.621 47.672-22.66 26.957-3.0664 53.664 7.5195 71.203 28.219l2.7812 3.2773-20.438 17.316-2.7773-3.2773c-11.762-13.879-29.668-20.977-47.746-18.922-12.047 1.3672-23.297 6.7148-31.961 15.195l-0.97656 0.95312c-13.031 12.75-19.383 31.234-17.078 49.453 1.5898 12.578 7.4141 24.676 16.254 33.77 12.645 13 30.867 19.43 48.715 17.098 12.664-1.6562 24.418-7.4961 33.383-16.598l16.312-16.559c24.457-24.828 56.727-40.469 91.371-44.289l6.0586-0.66797-0.085937-0.65234c-4.5039-33.691-20-65.043-44.012-89.125-33.363-33.457-80.367-49.918-127.31-44.582-34.113 3.875-66.023 19.027-90.555 43.023-34.469 33.723-51.148 82.426-45.086 130.39 4.2031 33.242 19.18 64.668 42.48 88.629z"
          fill="#fff"
          fill-rule="evenodd"
        />
      </g>
    </g>
  </g>
</svg>
