<?xml version="1.0" encoding="UTF-8"?>
<svg
  contentScriptType="text/ecmascript"
  contentStyleType="text/css"
  version="1.0"
  viewBox="0 0 375 375"
  xmlns="http://www.w3.org/2000/svg"
  zoomAndPan="magnify"
>
  <defs>
    <clipPath id="c">
      <path d="m32 32h311v311h-311z" />
    </clipPath>
    <clipPath id="b">
      <path d="m107.86 0.18359 267.09 107.73-107.73 267.09-267.09-107.73z" />
    </clipPath>
    <clipPath id="a">
      <path d="m107.86 0.18359 267.09 107.73-107.73 267.09-267.09-107.73z" />
    </clipPath>
  </defs>
  <g clip-path="url(#c)">
    <g clip-path="url(#b)">
      <g clip-path="url(#a)">
        <path
          d="m298.27 80.02c-0.99609-2.3438-2.8828-4.1953-5.2422-5.1484l-103.26-41.648c-2.3633-0.95312-5.0039-0.92578-7.3477 0.070313l-102.46 43.566c-2.3438 0.99219-4.1953 2.8789-5.1484 5.2422l-41.645 103.26c-0.95312 2.3594-0.92969 5 0.066406 7.3438l43.566 102.46c0.99609 2.3438 2.8828 4.1953 5.2422 5.1484l103.26 41.648c2.3594 0.94922 5.0039 0.92578 7.3477-0.070313l102.46-43.566c2.3438-0.99219 4.1953-2.8789 5.1445-5.2422l41.648-103.26c0.95312-2.3594 0.92969-5.0039-0.070312-7.3438zm-14.332 202.2-95.145 40.453-95.883-38.676-40.453-95.145 38.672-95.883 95.145-40.453 95.883 38.676 40.453 95.145z"
          fill="#fff"
        />
      </g>
    </g>
  </g>
</svg>
