<svg
  width="26"
  height="26"
  viewBox="0 0 26 26"
  fill="none"
  xmlns="http://www.w3.org/2000/svg"
>
  <circle cx="13.0049" cy="12.9335" r="1.39084" fill="white" />
  <path
    d="M1 12.9396L5.00867 4.96476L13.0262 1M1 12.9396L5.00867 20.9321M1 12.9396L13.0262 1M1 12.9396L13.0262 17.7283M1 12.9396L13.0262 8.1445M13.0262 1L21.001 4.96476M21.001 4.96476L25.0098 12.9396M21.001 4.96476L13.0262 8.1445M25.0098 12.9396L21.001 20.9321L13.0262 24.7533M25.0098 12.9396L13.0262 24.7533M25.0098 12.9396L13.0262 17.7283M25.0098 12.9396L13.0262 8.1445M13.0262 24.7533L5.00867 20.9321M5.00867 20.9321L13.0262 17.7283"
    stroke="white"
    stroke-linejoin="round"
  />
</svg>
