<svg xmlns="http://www.w3.org/2000/svg"
     width="375"
     viewBox="0 0 375 375"
     height="375"
     version="1.0">
  <path fill="#FFF"
        d="M 187.5 0 C 83.945312 0 0 83.945312 0 187.5 C 0 291.054688 83.945312 375 187.5 375 C 291.054688 375 375 291.054688 375 187.5 C 375 83.945312 291.054688 0 187.5 0 Z M 187.5 0" />
  <path fill="#1A202C"
        d="M 296.722656 76.277344 L 186.105469 31.59375 L 76.300781 78.210938 L 31.621094 188.824219 L 78.238281 298.628906 L 188.851562 343.3125 L 298.65625 296.695312 L 343.339844 186.078125 Z M 296.722656 76.277344" />
  <path fill="#FFF"
        d="M 280.46875 92.699219 L 186.273438 54.648438 L 92.769531 94.347656 L 54.71875 188.542969 L 94.417969 282.046875 L 188.613281 320.097656 L 282.117188 280.398438 L 320.167969 186.203125 Z M 280.46875 92.699219" />
</svg>
